<svg width="84" height="100" viewBox="0 0 84 100" fill="none" xmlns="http://www.w3.org/2000/svg">
<path d="M27.3663 51.2195L27.3663 60.9756C27.3694 68.9776 25.1851 76.8281 21.0497 83.6787C16.9143 90.5292 10.985 96.119 3.90291 99.8439C5.21737 99.9486 6.5355 100.001 7.85413 100C34.7956 100 56.6346 78.161 56.6346 51.2195L83.4639 51.2195L42.0005 -1.81242e-06L0.53705 51.2195L27.3663 51.2195ZM37.1224 60.9756L37.1224 41.4634L20.9858 41.4634L42.0005 15.5073L63.0151 41.4634L46.8785 41.4634L46.8785 51.2195C46.8848 56.828 45.6794 62.3717 43.3447 67.4713C41.0101 72.5708 37.6013 77.1058 33.3517 80.7658C35.8482 74.4667 37.1277 67.7514 37.1224 60.9756Z" fill="url(#paint0_linear_4076_2955)"/>
<defs>
<linearGradient id="paint0_linear_4076_2955" x1="83.4639" y1="12.1185" x2="47.4036" y2="105.902" gradientUnits="userSpaceOnUse">
<stop stop-color="#FF7822"/>
<stop offset="1" stop-color="#FFE722"/>
</linearGradient>
</defs>
</svg>
